<?xml version="1.0" encoding="iso-8859-1"?>
<!-- Uploaded to: SVG Repo, www.svgrepo.com, Generator: SVG Repo Mixer Tools -->
<svg version="1.1" id="Layer_1" xmlns="http://www.w3.org/2000/svg" xmlns:xlink="http://www.w3.org/1999/xlink" 
	 viewBox="0 0 487.821 487.821" xml:space="preserve">
<g id="XMLID_832_">
	<g id="XMLID_936_">
		<polygon style="fill:#AFDDF3;" points="427.786,52.53 157.602,52.53 158.284,277.684 157.602,277.684 157.602,427.786 
			210.138,427.786 210.138,292.694 330.22,292.694 367.745,255.168 397.765,255.168 397.765,435.291 450.301,435.291 
			450.301,90.056 		"/>
	</g>
	<g id="XMLID_831_">
		<rect x="112.571" y="277.684" style="fill:#5EBAE7;" width="45.031" height="150.102"/>
	</g>
	<g id="XMLID_925_">
		<polygon style="fill:#5EBAE7;" points="397.765,427.786 352.735,427.786 358.448,259.108 397.765,255.168 		"/>
	</g>
	<g id="XMLID_1168_">
		<polygon style="fill:#AFDDF3;" points="232.653,52.53 52.53,52.53 7.5,99.259 7.641,286.436 7.5,286.436 7.5,405.222 
			37.52,412.775 37.52,277.684 165.107,277.684 232.653,202.633 		"/>
	</g>
	<g id="XMLID_1152_">
		<polygon style="fill:#5EBAE7;" points="232.653,202.633 165.107,277.684 82.551,277.684 150.097,202.633 150.097,52.53 
			232.653,52.53 		"/>
	</g>
	<g id="XMLID_146_">
		<polygon style="fill:#1D1D1B;" points="168.447,285.184 112.571,285.184 112.571,270.184 161.768,270.184 225.153,199.755 
			225.153,60.031 135.087,60.031 135.087,45.031 240.153,45.031 240.153,205.51 		"/>
	</g>
	<g id="XMLID_191_">
		<path style="fill:#1D1D1B;" d="M487.821,255.168h-15V93.108c0-18.239-14.838-33.078-33.077-33.078H247.663v-15h192.081
			c26.51,0,48.077,21.567,48.077,48.078L487.821,255.168L487.821,255.168z"/>
	</g>
	<g id="XMLID_192_">
		<polygon style="fill:#1D1D1B;" points="142.592,435.286 105.071,435.286 105.071,292.694 120.071,292.694 120.071,420.286 
			142.592,420.286 		"/>
	</g>
	<g id="XMLID_193_">
		<polygon style="fill:#1D1D1B;" points="382.755,435.286 345.234,435.286 345.234,270.178 360.234,270.178 360.234,420.286 
			382.755,420.286 		"/>
	</g>
	<g id="XMLID_202_">
		<polygon style="fill:#1D1D1B;" points="457.801,442.791 390.266,442.791 390.266,262.668 370.852,262.668 333.326,300.194 
			217.638,300.194 217.638,442.791 150.102,442.791 150.102,292.694 165.102,292.694 165.102,427.791 202.638,427.791 
			202.638,285.194 327.113,285.194 364.639,247.668 405.266,247.668 405.266,427.791 442.801,427.791 442.801,92.327 
			429.051,71.701 441.531,63.381 457.801,87.785 		"/>
	</g>
	<g>
		<path style="fill:#1D1D1B;" d="M142.597,120.081v79.673l-63.386,70.429h-49.19v127.581c0,2.45,0.399,4.807,1.125,7.016
			l-8.463-0.195l-0.173-0.002c-4.141,0-7.51-3.369-7.51-7.51V115.556c0-30.617,24.908-55.525,55.525-55.525h49.551v-15H70.525
			C31.638,45.031,0,76.668,0,115.556v282.209h0.017c0.366,12.061,10.26,21.769,22.397,21.819l29.943,0.689v-0.002
			c0.058,0,0.115,0.004,0.173,0.004c12.412,0,22.511-10.098,22.511-22.51h-15c0,4.132-3.354,7.494-7.483,7.509l-0.101-0.002
			c-4.107-0.04-7.437-3.39-7.437-7.507V285.184h40.87l71.706-79.673v-70.429h15.016v-15L142.597,120.081L142.597,120.081z"/>
		<rect x="60.035" y="120.081" style="fill:#1D1D1B;" width="37.526" height="15"/>
		<rect x="67.546" y="135.087" style="fill:#1D1D1B;" width="15" height="15.01"/>
	</g>
	<g id="XMLID_214_">
		<rect x="255.168" y="75.051" style="fill:#1D1D1B;" width="75.052" height="15"/>
	</g>
</g>
</svg>