<?xml version="1.0" standalone="no"?>
<!DOCTYPE svg PUBLIC "-//W3C//DTD SVG 20010904//EN"
 "http://www.w3.org/TR/2001/REC-SVG-20010904/DTD/svg10.dtd">
<svg version="1.0" xmlns="http://www.w3.org/2000/svg"
 width="512.000000pt" height="512.000000pt" viewBox="0 0 512.000000 512.000000"
 preserveAspectRatio="xMidYMid meet">
<metadata>
Created by potrace 1.16, written by Peter Selinger 2001-2019
</metadata>
<g transform="translate(0.000000,512.000000) scale(0.100000,-0.100000)"
fill="#000000" stroke="none">
<path d="M1603 4486 c-94 -31 -214 -130 -283 -234 -38 -57 -47 -111 -54 -317
-6 -159 -14 -240 -47 -456 l-13 -86 35 -44 c20 -24 47 -65 62 -90 14 -25 43
-61 64 -79 53 -46 102 -111 103 -137 0 -12 -18 -72 -40 -134 -21 -62 -37 -116
-35 -119 3 -4 -7 -36 -21 -70 -14 -35 -43 -111 -63 -169 -78 -215 -145 -330
-276 -469 -85 -90 -99 -129 -43 -118 148 30 325 215 457 479 l70 142 1 -85 c0
-47 7 -157 15 -245 8 -88 20 -234 25 -325 10 -150 18 -227 36 -331 6 -35 5
-36 -38 -52 -24 -9 -56 -17 -71 -17 -16 0 -38 -10 -52 -24 l-24 -24 35 -96
c46 -131 68 -171 126 -232 78 -83 204 -123 302 -95 22 6 42 9 44 6 2 -2 -7
-19 -21 -37 -58 -75 -86 -190 -54 -216 6 -5 39 -18 71 -27 48 -14 84 -16 180
-12 67 3 144 12 172 20 l50 14 -4 -28 c-7 -47 6 -77 41 -95 161 -84 576 -59
628 37 11 22 8 98 -5 130 -6 14 4 17 66 22 86 6 146 31 154 64 4 13 -6 61 -20
109 -51 162 -58 376 -17 484 20 51 91 158 149 223 69 75 129 36 183 -119 29
-86 34 -198 14 -334 -18 -126 -34 -172 -70 -210 -65 -69 -86 -159 -46 -199 31
-31 120 -43 280 -39 120 3 153 7 186 23 39 19 40 21 40 70 -1 33 -9 66 -24 95
-21 40 -24 62 -29 195 -7 233 33 442 122 635 l25 55 0 -85 c1 -67 -3 -92 -18
-117 -30 -48 -44 -111 -36 -162 8 -50 7 -52 35 49 l13 45 18 -74 c20 -79 53
-144 90 -176 l22 -20 -16 25 c-28 43 -30 99 -8 164 26 74 26 102 1 144 -20 33
-20 37 -5 220 18 223 22 246 90 524 66 264 85 389 85 544 -1 162 -16 351 -35
427 -39 149 -144 312 -270 416 -51 42 -74 71 -111 140 -95 174 -168 260 -299
353 -177 126 -308 161 -515 138 -100 -11 -469 -98 -511 -120 -14 -8 -36 -6
-87 10 -43 14 -107 23 -182 27 -92 5 -148 14 -280 50 -186 49 -299 62 -367 39z
m294 -66 l82 -23 -97 -48 c-53 -26 -112 -63 -131 -83 l-34 -35 -36 29 c-38 29
-92 46 -112 35 -6 -4 5 -15 28 -25 39 -17 73 -57 73 -85 0 -11 -12 -15 -48
-15 -57 0 -107 -31 -164 -101 -53 -67 -56 -77 -13 -43 52 41 118 74 148 74 33
0 47 -18 37 -45 -5 -13 -14 -52 -20 -87 -16 -90 -17 -94 -65 -152 -63 -78 -78
-110 -72 -165 5 -51 33 -136 66 -196 33 -62 28 -115 -26 -258 l-25 -68 -61 63
c-65 68 -167 212 -167 236 0 8 7 56 15 106 27 168 65 471 71 577 5 74 12 113
25 135 31 51 144 153 201 180 48 22 62 25 148 21 58 -2 127 -13 177 -27z
m1386 5 c158 -41 346 -181 444 -329 52 -79 122 -223 149 -304 17 -53 17 -54
-9 -115 -113 -270 -118 -278 -207 -335 -30 -19 -79 -57 -108 -83 -29 -27 -88
-65 -130 -85 -42 -20 -95 -49 -117 -64 -22 -15 -69 -42 -105 -61 -42 -22 -95
-64 -152 -122 -93 -93 -148 -126 -211 -127 -56 0 -92 23 -118 77 -21 42 -24
66 -27 181 -5 159 3 195 66 321 42 84 47 102 47 160 0 53 -6 78 -29 126 -35
70 -35 77 -2 152 14 32 32 81 40 108 l16 50 -7 -80 c-8 -99 -7 -167 2 -314 8
-112 8 -114 24 -85 17 32 20 146 7 250 -10 71 10 145 51 194 24 29 25 29 61
14 69 -28 112 -85 112 -147 0 -36 -10 -52 -83 -130 -36 -38 -123 -182 -146
-242 -13 -33 59 53 99 120 27 44 69 104 94 133 52 60 61 84 54 147 -7 54 -38
99 -94 135 l-43 27 82 23 c119 33 213 37 320 11 48 -11 106 -30 130 -41 l42
-21 -30 26 c-45 38 -161 92 -240 111 -69 16 -179 15 -235 -1 -20 -6 -17 -2 13
19 40 29 50 44 16 26 -46 -25 -40 0 13 53 31 31 55 57 52 57 -20 0 -81 -45
-149 -110 -67 -64 -146 -120 -169 -120 -3 0 -10 18 -16 39 -16 61 -69 130
-147 194 -40 32 -73 62 -73 66 0 7 251 71 375 95 96 19 267 20 338 1z m-903
-86 c124 -26 289 -127 346 -211 23 -35 29 -56 32 -114 4 -75 -9 -159 -34 -209
-13 -29 -14 -27 -9 35 3 36 8 90 11 121 5 44 2 66 -16 106 -12 29 -31 60 -42
70 -12 10 -19 14 -16 8 2 -5 15 -32 27 -59 20 -43 23 -62 21 -140 -7 -186 -5
-207 27 -271 40 -79 47 -124 31 -193 l-12 -57 -6 57 c-6 65 -20 89 -20 35 0
-20 -9 -60 -21 -89 -12 -29 -39 -105 -61 -168 -44 -126 -78 -181 -139 -222
-41 -27 -105 -43 -150 -36 -32 4 -29 37 7 63 84 61 108 81 112 94 3 8 -8 4
-26 -9 -22 -16 -39 -21 -64 -18 -19 3 -42 -1 -54 -9 -20 -13 -22 -12 -28 29
-6 34 -3 45 13 62 19 18 25 19 66 8 100 -27 152 -3 199 91 34 68 30 84 -7 28
-15 -23 -44 -47 -71 -61 -44 -21 -48 -21 -98 -6 -82 24 -89 32 -53 61 40 33
25 42 -24 14 -45 -25 -81 -85 -81 -135 0 -16 7 -61 15 -99 20 -93 20 -189 0
-205 -13 -11 -15 -8 -16 16 0 16 -6 47 -13 69 -12 39 -13 36 -18 -70 -7 -135
-11 -147 -45 -134 -48 18 -109 11 -142 -17 -37 -30 -37 -28 -12 88 10 48 15
85 10 83 -10 -7 -65 -162 -74 -210 l-7 -40 -31 35 c-17 19 -35 34 -39 33 -4
-2 -31 9 -60 22 -62 29 -162 34 -207 10 -34 -17 -41 -12 -41 31 0 57 17 84 67
106 60 27 126 20 207 -22 51 -26 57 -27 40 -9 -55 63 -184 87 -259 49 -42 -21
-55 -19 -39 7 26 41 64 58 127 57 70 -1 124 -24 196 -82 30 -25 40 -29 33 -15
-17 31 -81 83 -126 104 -57 26 -151 25 -195 -2 l-34 -20 5 46 c7 56 34 88 94
111 64 24 141 15 203 -24 61 -38 50 -9 -12 31 -72 47 -173 45 -236 -4 -31 -25
-36 -19 -17 24 38 92 165 108 282 36 l49 -30 -42 39 c-71 66 -189 80 -255 32
l-26 -19 8 31 c12 41 35 65 78 79 72 24 180 -8 251 -75 25 -23 31 -26 22 -10
-14 28 -63 70 -115 97 -59 30 -153 30 -195 -1 -30 -22 -31 -22 -31 -3 0 96
132 131 257 67 28 -14 65 -37 83 -53 29 -24 32 -25 21 -6 -13 26 -81 74 -135
97 -55 23 -143 21 -185 -5 -18 -11 -35 -19 -36 -17 -2 2 -11 34 -19 72 -19 78
-48 132 -76 141 -23 7 -27 44 -8 78 6 12 34 47 63 78 28 31 76 101 107 155 31
54 68 116 82 137 22 32 23 36 6 27 -10 -6 -42 -47 -71 -93 -28 -45 -49 -75
-46 -67 41 117 86 208 124 251 54 59 146 106 247 125 79 15 239 12 326 -7z
m1621 -598 c159 -175 226 -395 185 -601 -19 -94 -43 -155 -123 -315 -54 -108
-181 -311 -189 -302 -3 2 16 57 41 122 26 64 45 119 43 121 -2 2 -35 -53 -73
-122 -170 -304 -206 -365 -271 -464 -93 -140 -163 -185 -305 -197 -103 -9
-103 -8 -64 89 19 46 45 123 59 171 20 70 35 99 67 135 73 82 120 221 118 347
l-1 60 -8 -50 c-19 -128 -81 -286 -129 -329 -16 -15 -16 -11 2 57 36 140 34
517 -4 590 -8 15 4 23 85 62 56 27 122 69 161 102 37 31 96 77 133 102 63 43
69 51 100 126 19 44 52 119 73 166 43 95 46 119 24 173 -15 36 -15 37 4 27 10
-6 43 -37 72 -70z m-2441 -142 c7 -11 9 -23 6 -26 -8 -9 -36 17 -36 33 0 21
18 17 30 -7z m-32 -586 c-10 -50 -18 -132 -18 -188 l0 -100 -35 35 -34 35 20
70 c35 129 73 235 82 235 2 0 -5 -39 -15 -87z m2669 -70 c-7 -147 -23 -244
-77 -468 -48 -199 -93 -335 -175 -525 -71 -166 -108 -271 -131 -375 -20 -93
-30 -364 -16 -432 9 -42 9 -58 -3 -87 -8 -19 -15 -63 -15 -96 l0 -60 -49 0
-48 0 -7 43 c-9 54 -27 81 -65 97 -26 10 -35 10 -63 -7 l-33 -19 -15 31 c-14
28 -14 32 6 62 12 18 25 57 28 87 4 30 14 60 22 67 22 18 104 14 145 -6 31
-17 33 -17 20 -1 -24 29 -67 46 -116 46 -25 0 -45 3 -45 8 0 16 42 405 56 522
18 151 30 206 49 234 14 19 15 15 15 -49 0 -93 15 -115 24 -37 8 68 34 165 71
262 27 70 61 131 200 360 95 155 186 341 206 421 7 27 15 49 17 49 3 0 2 -57
-1 -127z m-853 71 c10 -75 6 -313 -7 -394 l-12 -75 -13 130 c-7 72 -18 155
-25 185 -13 53 -13 48 -20 -135 -7 -205 -26 -375 -56 -495 -18 -70 -101 -273
-109 -266 -2 2 6 55 17 117 11 63 23 143 26 179 5 56 1 45 -34 -85 -21 -82
-64 -237 -95 -343 -30 -106 -71 -265 -91 -355 -20 -89 -52 -222 -71 -296 -47
-183 -44 -232 16 -286 33 -30 50 -69 50 -114 0 -35 -4 -43 -30 -56 -48 -25
-58 -20 -66 33 -3 26 -13 59 -20 74 -30 58 -98 76 -140 37 -22 -21 -22 -21
-42 -1 -29 29 -75 36 -111 18 -16 -9 -33 -20 -36 -26 -3 -5 -16 2 -30 17 l-23
28 28 40 c16 22 40 81 55 130 14 50 28 96 30 103 3 9 17 3 46 -18 65 -47 145
-40 213 17 19 17 23 24 11 18 -72 -29 -102 -36 -134 -30 -55 10 -89 32 -119
77 -25 38 -27 49 -26 132 1 50 15 179 33 286 27 172 50 412 36 385 -3 -5 -14
-59 -25 -120 l-20 -110 4 200 c3 179 6 210 30 300 15 55 36 120 47 144 25 58
17 65 -12 9 -12 -23 -24 -37 -26 -31 -9 25 61 202 86 217 5 3 22 -1 37 -9 40
-21 64 -19 136 9 35 14 75 27 90 30 43 9 85 52 103 105 25 77 69 137 127 174
90 57 153 95 159 96 4 1 9 -20 13 -45z m-748 -181 c8 -21 29 -66 45 -100 l30
-63 -43 -55 c-48 -62 -60 -54 -34 21 18 54 3 56 -32 4 -27 -41 -85 -219 -108
-336 l-17 -86 -18 23 c-27 35 -49 105 -56 177 -9 90 -23 87 -23 -4 l0 -78 -57
79 -58 78 62 62 c51 52 64 72 82 129 12 38 21 78 21 91 0 19 7 23 40 28 23 3
62 19 88 36 26 17 51 31 55 31 4 0 15 -17 23 -37z m-795 -74 c43 -19 118 -83
108 -93 -2 -3 -37 12 -77 31 -92 46 -174 51 -236 15 l-39 -23 7 23 c3 13 6 27
6 31 0 4 19 17 43 28 50 23 115 19 188 -12z m339 -4 c10 -12 9 -30 -5 -92 -57
-259 -205 -502 -350 -575 -78 -40 -82 -32 -19 34 133 139 217 316 254 537 8
45 19 80 31 92 23 23 72 25 89 4z m-652 -98 c-25 -115 -146 -348 -241 -464
-63 -78 -185 -173 -223 -173 -3 0 23 31 58 68 121 128 193 254 278 487 18 50
41 109 51 133 l19 43 34 -26 c33 -25 33 -27 24 -68z m355 14 c37 -19 67 -37
67 -40 0 -3 -7 -14 -15 -25 -13 -18 -15 -18 -42 1 -52 36 -58 35 -19 -3 41
-39 41 -39 -59 -3 -60 21 -144 23 -187 4 -30 -12 -21 23 10 39 15 8 23 15 19
16 -5 0 -17 -5 -28 -10 -16 -9 -19 -7 -19 8 0 33 55 53 136 50 57 -3 83 -10
137 -37z m-42 -103 c61 -19 68 -24 63 -42 -4 -12 -8 -22 -9 -24 -1 -1 -22 7
-46 18 -24 11 -55 19 -69 19 -22 -1 -21 -2 7 -10 48 -14 103 -49 103 -65 0
-17 4 -18 -66 7 -38 14 -86 22 -136 23 l-78 1 0 38 c0 33 4 40 33 53 40 18
104 12 198 -18z m496 -224 c45 -65 80 -121 77 -123 -14 -14 -142 146 -184 229
l-22 44 23 -15 c13 -9 61 -69 106 -135z m-522 109 c41 -13 61 -24 63 -37 4
-18 -2 -18 -99 -11 -56 4 -114 11 -127 16 -14 5 -27 8 -29 5 -8 -8 92 -36 131
-36 64 0 116 -11 116 -25 0 -23 -63 -40 -145 -40 -95 0 -123 8 -105 30 9 10 9
15 1 15 -16 0 -14 97 2 104 21 10 129 -2 192 -21z m401 -190 c19 -36 36 -88
42 -129 11 -74 42 -540 52 -794 4 -85 13 -172 20 -192 10 -27 10 -44 3 -60 -7
-17 -6 -37 3 -73 19 -74 17 -91 -17 -130 -41 -46 -106 -65 -226 -65 l-94 0 6
48 c12 89 16 101 47 127 35 29 89 33 145 10 36 -15 36 -15 19 4 -27 30 -104
42 -157 26 -11 -4 -33 -27 -49 -51 -18 -29 -30 -39 -33 -31 -3 8 12 40 34 72
21 32 39 67 39 78 0 16 3 18 12 9 17 -17 103 -15 138 3 41 21 38 24 -14 12
-28 -6 -56 -6 -82 0 l-39 10 46 -1 c35 -1 55 6 88 28 48 34 48 42 0 22 -43
-18 -83 -23 -89 -12 -3 5 20 22 50 38 30 16 64 38 75 49 18 18 17 18 -33 -1
-29 -11 -52 -16 -52 -11 0 5 7 28 15 51 21 60 21 292 0 310 -12 10 -19 9 -37
-4 -13 -9 -39 -27 -58 -40 -60 -40 -63 -54 -6 -27 29 15 61 32 70 40 15 12 15
5 10 -95 -5 -95 -10 -118 -39 -180 -33 -72 -86 -133 -140 -162 -44 -24 -178
-23 -227 2 -67 33 -146 126 -107 126 5 0 27 11 47 25 45 30 36 32 -19 4 -23
-11 -48 -17 -57 -14 -13 5 -7 10 22 20 21 7 44 19 50 25 6 6 -9 4 -34 -5 -42
-15 -46 -15 -58 2 -12 16 -9 19 28 24 22 3 46 11 53 19 10 10 9 12 -5 7 -47
-17 -91 -19 -99 -6 -14 22 -11 27 19 31 27 3 26 4 -14 25 -22 12 -46 29 -53
37 -23 27 16 32 65 7 48 -23 74 -27 74 -11 0 5 -6 7 -14 4 -8 -3 -26 2 -41 12
l-27 17 24 13 c12 7 33 13 44 14 24 0 42 -36 63 -127 8 -31 25 -66 44 -88 56
-63 125 -64 186 -1 l34 36 36 -21 36 -21 -32 29 c-29 25 -31 30 -18 46 12 17
15 17 45 2 18 -9 34 -14 37 -11 3 3 -11 13 -30 22 -38 18 -40 34 -4 34 21 1
21 1 -3 14 l-24 14 52 33 c49 30 72 59 35 44 -10 -4 -31 -11 -46 -16 -16 -4
-35 -13 -42 -19 -23 -19 -30 205 -11 320 23 129 99 424 126 488 22 50 24 52
44 39 11 -8 35 -41 52 -74z m-348 50 c-5 -28 -92 -54 -159 -48 -72 6 -89 13
-89 37 0 15 5 18 17 14 39 -16 130 -17 173 -3 60 20 62 20 58 0z m-115 -61
c40 3 80 8 91 13 14 6 17 4 14 -11 -5 -31 -65 -54 -140 -54 -71 0 -98 14 -98
50 0 17 4 18 30 8 17 -5 63 -8 103 -6z m-51 -67 c25 -4 62 -2 82 4 43 11 45
15 -33 -80 -35 -44 -48 -53 -70 -51 -31 4 -51 27 -51 58 0 20 2 21 46 12 26
-6 50 -6 55 -1 4 4 -5 9 -21 9 -60 3 -80 13 -80 40 0 18 4 25 14 21 7 -3 34
-8 58 -12z m2390 -330 l-9 -120 -2 141 c-1 148 11 265 17 154 1 -30 -2 -109
-6 -175z m-2183 -150 c44 -269 45 -287 27 -322 -26 -51 -82 -75 -130 -57 -22
8 -53 61 -76 130 -22 64 -18 73 31 66 23 -3 30 -9 26 -22 -5 -18 24 -50 44
-50 6 0 8 8 4 19 -24 77 -35 173 -35 317 0 213 5 251 39 269 l26 13 8 -91 c4
-51 20 -173 36 -272z m-166 325 c30 0 38 -24 11 -34 -20 -8 -62 -8 -91 0 -17
5 -23 14 -23 34 l0 28 38 -14 c20 -7 49 -13 65 -14z m752 -75 l52 -34 -9 -66
c-14 -102 -54 -229 -111 -349 -49 -104 -52 -107 -61 -80 -5 16 -9 124 -10 239
-1 204 8 288 37 352 l10 22 20 -26 c11 -14 44 -40 72 -58z m-725 20 c0 -24
-17 -35 -55 -35 -55 0 -75 8 -75 29 0 13 10 15 65 13 36 -2 65 -5 65 -7z m-52
-52 c47 -6 52 -26 8 -31 -43 -5 -73 6 -79 29 -4 16 -2 19 11 14 9 -4 36 -10
60 -12z m42 -59 c0 -10 -13 -15 -42 -16 l-43 -1 43 -4 c40 -4 61 -23 25 -23
-15 0 -16 -2 -3 -10 25 -16 2 -23 -42 -14 -41 9 -43 11 -46 49 l-3 40 56 -3
c39 -3 55 -8 55 -18z m1831 -58 c5 12 8 -3 8 -38 1 -32 -2 -58 -6 -57 -5 0
-22 29 -38 64 l-31 63 30 -25 c28 -24 30 -24 37 -7z m-1866 -26 c32 0 36 -3
33 -22 -2 -18 -10 -24 -38 -26 -43 -3 -56 5 -66 42 -6 26 -5 27 14 17 11 -6
37 -11 57 -11z m1520 -40 c-26 -52 -40 -66 -27 -27 10 27 4 57 -11 58 -17 1
24 17 46 18 15 1 15 -4 -8 -49z m-1485 -45 c0 -13 -7 -25 -15 -29 -17 -6 -75
3 -75 13 0 3 -3 15 -6 26 -5 18 -1 20 45 17 46 -4 51 -6 51 -27z m1380 15
c-15 -29 -7 -37 37 -34 31 3 35 1 22 -9 -20 -16 -55 -90 -70 -150 -7 -31 -10
-99 -6 -200 4 -127 9 -165 31 -232 36 -111 35 -132 -9 -151 -56 -23 -65 -19
-65 26 0 68 -41 120 -95 120 -8 0 -11 7 -8 20 6 23 51 27 100 10 27 -10 27 -9
8 5 -11 9 -31 18 -45 21 -63 14 -68 28 -13 39 27 5 33 9 22 16 -8 5 -24 9 -36
9 -13 0 -23 4 -23 9 0 13 46 22 77 16 27 -6 27 -6 9 9 -11 9 -35 16 -53 16
-18 0 -33 2 -33 5 0 14 82 330 96 372 15 45 49 103 60 103 3 0 0 -9 -6 -20z
m-604 -165 c-11 -72 -16 -161 -14 -251 l3 -139 -34 -72 c-19 -40 -38 -73 -42
-73 -23 0 -61 73 -69 132 -17 115 -14 131 51 265 33 69 73 163 87 207 33 101
39 79 18 -69z m-776 98 c0 -6 -6 -14 -12 -16 -8 -3 -6 -6 5 -6 29 -2 22 -49
-8 -57 -38 -9 -50 0 -61 48 l-10 43 43 0 c26 0 43 -5 43 -12z m20 -98 c0 -11
-10 -14 -40 -12 -48 2 -53 14 -7 20 17 2 35 5 40 5 4 1 7 -5 7 -13z m1250
-515 c14 -14 20 -33 20 -63 0 -53 -4 -57 -38 -48 -51 14 -70 131 -22 131 11 0
29 -9 40 -20z m484 -16 c12 -4 16 -20 16 -55 0 -52 -10 -60 -51 -38 -16 8 -19
16 -13 42 5 28 21 57 29 57 2 0 10 -3 19 -6z m154 -16 c7 -7 12 -34 12 -60 0
-53 -3 -55 -82 -42 -35 6 -38 9 -38 38 0 47 25 76 64 76 17 0 37 -5 44 -12z
m223 -14 c12 -34 4 -60 -21 -67 -18 -5 -20 0 -20 44 0 37 4 49 15 49 9 0 20
-12 26 -26z m-1923 -101 c3 -47 1 -51 -17 -46 -36 9 -43 28 -27 68 21 50 40
40 44 -22z m507 -33 c4 -6 3 -40 0 -76 -7 -60 -9 -64 -29 -58 -32 9 -48 35
-41 68 11 58 52 96 70 66z m161 -16 c18 -18 24 -32 20 -47 -3 -12 -6 -40 -6
-62 l0 -41 -42 4 c-24 1 -58 5 -77 8 l-33 5 5 52 c3 41 10 56 36 79 39 35 65
35 97 2z m178 -4 c13 -12 21 -38 24 -74 5 -62 9 -60 -100 -70 l-58 -6 0 49 c0
58 14 100 38 119 22 17 71 8 96 -18z"/>
<path d="M3540 3786 c0 -2 19 -15 43 -29 23 -14 75 -59 115 -100 39 -41 72
-72 72 -67 0 14 -57 85 -98 122 -47 43 -132 90 -132 74z"/>
<path d="M2089 4312 c-26 -9 -57 -25 -70 -34 -24 -17 -24 -17 16 -11 49 6 130
29 170 47 l30 14 -50 1 c-27 0 -71 -8 -96 -17z"/>
<path d="M2205 4117 c13 -23 29 -71 35 -107 12 -69 32 -124 47 -133 9 -6 -4
80 -27 171 -12 50 -35 89 -61 102 -15 9 -14 4 6 -33z"/>
<path d="M2635 4050 c8 -23 18 -64 21 -92 6 -45 8 -49 16 -28 11 29 2 72 -23
123 -25 49 -32 47 -14 -3z"/>
<path d="M2483 3715 c15 -31 54 -71 61 -64 2 2 -14 24 -36 49 -34 37 -38 40
-25 15z"/>
<path d="M2279 3683 c-45 -40 -73 -90 -83 -143 -6 -31 -4 -29 18 16 13 29 42
70 65 93 37 37 46 41 89 41 40 0 57 -6 93 -34 24 -19 58 -37 74 -41 l30 -6
-30 14 c-16 8 -50 33 -73 56 -39 37 -49 41 -93 41 -42 0 -54 -5 -90 -37z"/>
<path d="M2302 3601 c-24 -25 -81 -109 -91 -134 -2 -5 14 2 35 17 29 20 51 26
90 26 41 0 55 5 74 25 15 16 35 25 54 25 28 1 29 2 11 12 -11 6 -33 22 -48 35
-41 33 -91 31 -125 -6z m107 10 c9 -6 -3 -10 -37 -12 -39 -3 -48 -1 -40 9 12
14 56 16 77 3z"/>
<path d="M1703 3530 c-37 -22 -45 -37 -11 -19 84 45 171 28 298 -58 22 -15 22
-13 -5 16 -68 75 -209 106 -282 61z"/>
<path d="M2400 3489 c-19 -10 -46 -19 -61 -19 -32 0 -42 -9 -28 -27 15 -17 60
-17 85 2 10 8 15 15 10 15 -5 0 1 11 14 25 28 30 26 30 -20 4z m-33 -45 c-3
-3 -12 -4 -19 -1 -8 3 -5 6 6 6 11 1 17 -2 13 -5z"/>
<path d="M1834 3080 c21 -11 45 -25 55 -32 15 -12 15 -11 1 6 -8 11 -29 25
-47 33 -48 19 -54 15 -9 -7z"/>
<path d="M3985 3279 c-41 -90 -119 -162 -223 -206 -54 -22 -55 -23 -17 -17 97
16 194 97 242 200 14 31 23 57 21 60 -3 2 -13 -14 -23 -37z"/>
<path d="M3895 3085 c-27 -25 -86 -63 -130 -85 -87 -44 -80 -55 11 -15 64 28
124 73 154 116 12 16 20 29 18 29 -2 -1 -25 -21 -53 -45z"/>
<path d="M4001 2939 c-43 -41 -54 -56 -34 -46 35 18 121 109 101 107 -2 -1
-32 -28 -67 -61z"/>
<path d="M4057 2648 c-9 -24 -43 -119 -76 -212 -34 -93 -60 -171 -58 -172 2
-2 21 35 41 83 42 97 121 332 113 339 -3 3 -12 -14 -20 -38z"/>
<path d="M3935 2202 c-45 -89 -64 -132 -60 -132 7 0 97 181 93 186 -2 2 -17
-22 -33 -54z"/>
<path d="M3777 1614 c-9 -33 -17 -69 -16 -80 0 -10 9 13 20 51 10 39 17 74 16
79 -2 6 -11 -17 -20 -50z"/>
<path d="M3752 1490 c0 -14 2 -19 5 -12 2 6 2 18 0 25 -3 6 -5 1 -5 -13z"/>
<path d="M3583 1230 c-13 -5 -23 -11 -23 -13 0 -2 34 -3 76 -3 70 1 74 2 48
13 -34 14 -70 15 -101 3z"/>
<path d="M3591 1179 c-48 -14 -35 -18 39 -12 45 4 58 9 45 14 -26 10 -42 9
-84 -2z"/>
<path d="M3602 1140 c-57 -13 -49 -22 13 -15 37 4 71 2 90 -5 26 -10 28 -9 15
3 -19 19 -76 27 -118 17z"/>
<path d="M2602 2080 c0 -14 2 -19 5 -12 2 6 2 18 0 25 -3 6 -5 1 -5 -13z"/>
<path d="M2580 1320 c37 -75 95 -91 157 -44 19 14 32 29 29 32 -3 3 -15 -3
-27 -14 -14 -13 -36 -19 -66 -19 -39 0 -49 5 -75 35 -23 26 -27 29 -18 10z"/>
<path d="M2550 1132 c1 -4 17 -19 37 -34 27 -21 48 -28 80 -28 49 0 101 19
122 43 17 21 7 22 -23 2 -13 -9 -45 -18 -72 -21 -40 -5 -58 -1 -96 20 -27 14
-48 22 -48 18z"/>
<path d="M2557 2707 c-19 -30 -47 -96 -47 -111 1 -14 16 12 46 79 25 59 26 70
1 32z"/>
<path d="M2175 2120 c3 -25 10 -103 16 -175 6 -71 13 -132 16 -135 11 -11 -7
248 -21 300 l-15 55 4 -45z"/>
<path d="M1965 1354 c38 -30 61 -36 32 -10 -15 14 -33 26 -40 26 -7 0 -3 -8 8
-16z"/>
<path d="M1935 1290 c10 -11 20 -20 23 -20 3 0 -3 9 -13 20 -10 11 -20 20 -23
20 -3 0 3 -9 13 -20z"/>
<path d="M1646 1281 c-17 -19 -17 -19 0 -17 9 2 18 10 20 19 3 21 1 21 -20 -2z"/>
<path d="M1920 1263 c13 -18 26 -30 29 -28 3 3 -8 18 -23 33 l-29 27 23 -32z"/>
<path d="M1880 1275 c0 -9 30 -65 35 -65 7 0 -16 60 -26 66 -5 3 -9 2 -9 -1z"/>
<path d="M1673 1244 c-20 -18 -22 -22 -7 -15 21 10 52 41 41 41 -3 0 -19 -12
-34 -26z"/>
<path d="M1695 1220 c-16 -16 -24 -30 -18 -30 10 0 34 24 47 48 12 20 2 14
-29 -18z"/>
<path d="M1861 1235 c0 -11 4 -29 9 -40 l9 -20 0 20 c0 11 -4 29 -9 40 l-9 20
0 -20z"/>
<path d="M1725 1198 c-17 -29 -17 -31 -1 -19 21 17 40 51 29 51 -5 0 -17 -15
-28 -32z"/>
<path d="M1770 1227 c0 -1 -4 -18 -10 -36 -5 -19 -6 -30 -1 -25 10 11 24 64
16 64 -3 0 -5 -1 -5 -3z"/>
<path d="M1801 1213 c0 -12 -4 -30 -7 -40 -5 -14 -4 -15 5 -7 7 6 11 24 8 40
-3 21 -4 23 -6 7z"/>
<path d="M1833 1195 c0 -22 2 -30 4 -17 2 12 2 30 0 40 -3 9 -5 -1 -4 -23z"/>
<path d="M1668 1613 c7 -3 16 -2 19 1 4 3 -2 6 -13 5 -11 0 -14 -3 -6 -6z"/>
<path d="M1678 1593 c6 -2 18 -2 25 0 6 3 1 5 -13 5 -14 0 -19 -2 -12 -5z"/>
</g>
</svg>