<?xml version="1.0" standalone="no"?>
<!DOCTYPE svg PUBLIC "-//W3C//DTD SVG 20010904//EN"
 "http://www.w3.org/TR/2001/REC-SVG-20010904/DTD/svg10.dtd">
<svg version="1.0" xmlns="http://www.w3.org/2000/svg"
 width="512.000000pt" height="512.000000pt" viewBox="0 0 512.000000 512.000000"
 preserveAspectRatio="xMidYMid meet">
<metadata>
Created by potrace 1.16, written by Peter Selinger 2001-2019
</metadata>
<g transform="translate(0.000000,512.000000) scale(0.100000,-0.100000)"
fill="#000000" stroke="none">
<path d="M1862 4320 c-78 -11 -177 -43 -257 -83 -156 -78 -262 -174 -394 -361
-47 -66 -104 -141 -127 -167 -24 -27 -48 -58 -54 -69 -27 -50 27 -139 111
-184 80 -42 106 -71 120 -130 25 -110 54 -152 208 -303 120 -119 153 -146 188
-154 28 -7 62 -30 102 -66 52 -47 60 -58 55 -81 -3 -15 -1 -61 6 -102 6 -41
15 -208 20 -370 6 -219 15 -347 35 -500 30 -230 30 -405 0 -555 -9 -48 -13
-97 -9 -123 6 -39 1 -53 -41 -136 -77 -148 -53 -176 142 -175 197 1 218 23
164 176 -33 92 -34 98 -27 200 7 116 28 247 53 337 l16 59 14 -44 c26 -82 42
-194 43 -290 0 -75 5 -107 20 -140 27 -60 25 -89 -11 -172 -21 -48 -32 -89
-33 -125 -1 -48 2 -56 31 -82 27 -24 42 -29 119 -35 121 -10 256 -1 302 22 29
14 38 25 43 53 4 19 7 28 8 19 4 -49 198 -87 356 -69 107 11 122 16 153 43 34
31 28 73 -24 173 -46 86 -47 91 -56 214 -8 124 -6 193 13 345 14 110 16 116
43 109 12 -3 42 2 66 10 24 8 45 14 46 13 1 -1 11 -22 23 -45 33 -66 51 -170
57 -342 6 -143 5 -159 -15 -208 -50 -125 -25 -153 139 -160 138 -6 196 3 226
34 29 28 26 49 -17 136 -16 32 -29 73 -29 92 0 19 -9 85 -19 148 -31 180 -35
296 -17 435 9 67 20 133 26 148 9 24 8 25 -18 19 -56 -13 -118 -46 -157 -84
-81 -77 -144 -107 -172 -79 -8 8 -24 6 -57 -5 -84 -29 -90 -24 -74 63 9 48 20
71 43 94 17 18 39 43 48 56 15 23 19 24 42 11 14 -8 52 -35 85 -61 52 -43 60
-46 65 -29 11 34 74 80 135 96 57 17 59 18 70 63 6 25 28 84 48 131 34 80 37
83 43 55 4 -16 7 -55 8 -85 2 -100 31 -181 84 -237 45 -48 50 -40 11 18 -41
61 -47 101 -7 50 14 -18 41 -40 60 -47 21 -9 33 -21 33 -34 0 -36 19 -31 26 7
5 25 2 52 -9 82 -8 24 -11 39 -6 34 5 -5 18 -33 28 -62 l18 -53 7 44 c11 74
-31 148 -83 148 l-26 0 -1 148 c0 81 -6 179 -13 217 -11 67 -11 76 15 160 38
125 38 240 0 387 l-28 108 39 44 c22 25 58 83 80 129 23 47 55 95 73 110 34
29 61 37 40 12 -22 -26 -2 -16 25 12 14 15 25 38 25 51 0 13 -20 65 -44 115
-25 51 -63 135 -86 188 -57 134 -125 232 -225 327 -103 98 -220 172 -329 209
-142 48 -305 35 -406 -33 -46 -32 -112 -31 -325 1 -173 26 -207 25 -304 -9
-56 -20 -52 -21 -97 15 -121 96 -322 144 -502 119z m318 -58 c64 -21 170 -84
170 -101 0 -18 -138 -121 -161 -121 -13 0 -44 14 -69 30 -70 47 -128 60 -259
59 l-116 -1 61 -13 c33 -7 90 -28 125 -46 l64 -34 -120 -6 c-124 -7 -216 -30
-285 -70 -19 -11 -26 -17 -15 -14 64 20 130 27 229 23 118 -4 184 -24 235 -71
23 -22 111 -195 111 -219 0 -6 6 -3 14 7 12 17 14 16 21 -24 5 -32 2 -56 -15
-102 -21 -55 -22 -66 -11 -129 6 -38 31 -126 56 -195 25 -71 45 -144 44 -164
l-1 -36 -9 42 c-7 39 -98 258 -99 240 0 -4 16 -59 35 -123 43 -142 44 -185 5
-359 -16 -74 -30 -138 -30 -142 1 -10 54 122 84 207 l24 65 7 -38 c4 -21 2
-57 -4 -83 -17 -66 -67 -161 -95 -179 -21 -14 -29 -13 -92 6 -90 28 -185 71
-203 92 -15 19 -8 68 29 215 10 39 16 72 13 72 -8 0 -72 -146 -84 -193 l-11
-47 -47 37 c-25 20 -48 38 -50 39 -1 2 23 78 54 171 31 92 59 175 61 183 10
31 -45 -65 -106 -185 -59 -116 -66 -125 -92 -125 -20 0 -44 14 -78 46 -28 26
-50 52 -50 59 0 6 10 20 21 31 18 16 174 242 204 294 8 15 -23 -10 -104 -85
-24 -22 -68 -70 -97 -107 -34 -42 -62 -68 -74 -68 -26 0 -95 63 -125 114 -13
23 -29 64 -36 91 -6 28 -23 74 -37 104 -23 50 -29 55 -98 87 -53 24 -77 41
-88 63 -9 17 -16 32 -16 36 0 3 24 5 54 5 43 0 73 9 157 49 57 27 161 70 231
97 70 26 126 49 124 52 -7 6 -188 -52 -301 -97 -55 -22 -101 -36 -103 -32 -5
14 132 226 185 288 43 50 105 105 159 140 16 11 15 11 -8 3 -125 -43 -181 -94
-333 -309 -61 -86 -101 -123 -145 -136 -20 -7 -15 3 30 51 30 33 86 105 125
159 161 231 351 367 578 415 76 16 285 5 357 -18z m1306 -67 c81 -27 149 -65
246 -137 134 -98 214 -209 306 -418 34 -80 74 -164 88 -188 29 -50 27 -58 -9
-41 -34 16 -67 64 -117 174 -105 229 -122 259 -189 326 -144 144 -393 198
-481 104 -13 -14 -29 -25 -36 -25 -6 0 -30 24 -52 54 -23 30 -61 67 -86 82
-25 16 -45 33 -46 37 0 12 86 48 139 57 65 12 154 2 237 -25z m-793 -21 c17
-3 93 -9 167 -14 167 -11 227 -31 305 -101 67 -62 123 -137 131 -175 3 -16 -2
-47 -10 -69 l-15 -40 0 46 c-1 48 -17 106 -33 124 -6 6 -7 -4 -3 -28 9 -45 -4
-193 -15 -181 -4 5 -14 27 -21 49 -13 39 -14 40 -17 11 -3 -24 50 -198 65
-216 2 -2 8 2 13 9 14 24 43 -48 43 -109 0 -59 -33 -183 -57 -215 -11 -15 -10
-3 5 45 29 94 35 186 15 230 -9 19 -14 26 -11 15 21 -98 10 -144 -71 -312 -24
-51 -44 -99 -44 -108 0 -36 -18 -11 -30 43 -18 81 -18 82 -19 32 0 -25 11 -76
25 -115 89 -249 91 -261 34 -298 -37 -24 -53 -25 -31 -2 5 6 12 21 16 35 7 22
6 23 -8 12 -14 -12 -17 -9 -22 25 -13 81 -24 101 -19 33 3 -36 1 -78 -4 -95
-7 -26 -10 -19 -16 50 -5 44 -14 98 -21 120 -12 36 -13 29 -8 -80 3 -80 1
-135 -7 -165 l-12 -45 -13 40 c-31 87 -89 127 -196 133 -70 4 -111 -9 -156
-51 -35 -32 -27 -39 12 -12 76 51 165 58 241 18 52 -27 73 -59 81 -121 6 -54
-3 -66 -28 -36 -29 35 -93 58 -159 59 -53 0 -73 -5 -112 -28 -26 -15 -51 -35
-57 -44 -7 -13 -13 2 -24 58 -18 87 -37 215 -40 279 l-2 45 -12 -39 c-8 -27
-10 -75 -6 -150 l6 -111 -37 33 c-20 17 -46 32 -57 32 -19 0 -20 4 -13 63 4
34 17 100 31 146 34 119 38 161 23 254 -7 45 -11 93 -9 107 4 23 6 22 32 -20
l27 -45 -6 35 c-9 55 -62 156 -95 184 -33 28 -68 33 -87 14 -20 -20 -14 -24
23 -20 21 3 35 0 35 -7 0 -6 -11 -11 -24 -11 -12 0 -38 -5 -55 -11 l-33 -12
29 -18 c15 -10 24 -19 19 -19 -6 0 5 -11 24 -25 19 -14 44 -25 57 -25 30 0 29
-18 -2 -32 -19 -8 -31 -8 -50 0 -37 17 -30 7 20 -29 45 -32 48 -37 60 -96 8
-42 -5 -43 -55 -3 -52 41 -56 38 -20 -14 30 -45 38 -88 20 -116 -7 -12 -14
-10 -40 15 -47 45 -74 98 -115 224 -43 131 -45 178 -16 271 25 77 27 151 6
211 -18 51 -13 86 22 149 l24 45 -36 -40 c-20 -22 -41 -59 -48 -82 -15 -56
-27 -36 -27 45 0 55 2 62 20 62 11 0 51 29 89 64 55 50 86 69 143 90 112 41
163 47 261 30z m931 -185 c107 -40 206 -155 265 -310 17 -45 31 -83 31 -85 0
-2 -24 13 -52 33 -51 35 -49 33 33 -53 47 -49 96 -106 108 -126 12 -21 33 -46
47 -57 l24 -19 -34 -51 -34 -50 -27 52 c-53 101 -175 276 -175 251 0 -14 101
-196 145 -261 43 -66 44 -67 29 -102 -13 -32 -60 -101 -68 -101 -2 0 -38 43
-80 95 -42 52 -79 95 -81 95 -2 0 16 -48 41 -107 25 -60 50 -120 56 -136 16
-44 3 -74 -45 -98 -23 -12 -54 -33 -69 -47 -21 -19 -29 -22 -33 -11 -2 8 -12
34 -20 58 -21 62 -97 233 -101 228 -4 -3 20 -88 67 -235 16 -51 29 -99 29
-107 0 -8 -26 -28 -58 -44 -32 -16 -79 -45 -105 -65 -92 -70 -145 -84 -171
-43 -25 38 -97 308 -103 387 -4 57 -2 83 11 110 l16 35 -5 -65 c-6 -76 10 -64
20 15 4 27 18 98 31 157 29 130 30 158 3 234 -28 82 -20 123 45 225 76 121
138 156 261 147 l60 -4 -55 25 c-30 13 -80 30 -110 37 l-55 12 52 1 c31 1 75
-8 107 -20z m-1213 -556 c13 -17 13 -17 -6 -3 -11 8 -22 16 -24 17 -2 2 0 3 6
3 6 0 17 -8 24 -17z m1495 -572 c24 -120 16 -241 -23 -346 -34 -92 -92 -207
-92 -185 -1 8 17 83 39 165 25 93 42 181 45 230 3 60 2 71 -5 45 -8 -32 -9
-30 -6 17 3 55 -8 90 -17 57 -3 -11 -13 -59 -22 -109 -71 -400 -248 -865 -329
-865 -7 0 -34 19 -60 42 -54 47 -54 29 -8 208 31 122 67 310 86 451 6 47 17
93 24 102 7 8 45 34 83 58 39 23 85 60 102 81 17 21 53 52 79 68 27 17 54 41
60 55 16 36 24 22 44 -74z m-717 -168 c0 -74 -23 -197 -32 -173 -3 8 -10 33
-16 55 -10 39 -10 38 -6 -16 8 -91 71 -325 110 -407 55 -117 120 -207 186
-258 53 -42 71 -64 53 -64 -3 0 -34 15 -67 33 -78 41 -203 166 -246 246 -17
33 -41 86 -51 117 -26 75 -60 253 -60 314 0 75 29 157 68 191 52 46 62 40 61
-38z m-683 23 c19 -19 34 -41 34 -49 0 -9 -14 -73 -32 -144 -53 -218 -41 -420
30 -497 l27 -28 -25 7 c-66 20 -108 78 -136 185 -22 85 -15 285 15 425 34 158
32 156 87 101z m1351 -18 c-3 -7 -5 -2 -5 12 0 14 2 19 5 13 2 -7 2 -19 0 -25z
m-554 -137 l39 -15 -5 -175 c-3 -131 -9 -190 -22 -231 l-18 -55 -15 35 c-42
99 -73 318 -71 505 l1 90 26 -69 c23 -62 30 -71 65 -85z m-1365 90 c14 -17 17
-147 3 -155 -7 -5 -61 171 -61 199 0 9 36 -19 58 -44z m927 28 c56 -16 105
-68 105 -111 0 -47 -7 -51 -48 -26 -25 16 -56 23 -111 26 -66 3 -82 0 -123
-21 -52 -26 -58 -23 -58 33 0 48 91 107 170 109 14 1 43 -4 65 -10z m-622 -73
c-15 -33 -20 -36 -48 -31 -28 6 -29 5 -10 -9 47 -36 59 -56 34 -56 -18 0 -68
-40 -80 -63 l-12 -22 24 21 c13 12 34 26 45 32 20 11 22 8 31 -38 9 -45 8 -50
-7 -50 -10 0 -26 -8 -37 -17 -10 -10 -13 -14 -7 -10 23 15 57 3 66 -24 7 -22
2 -31 -37 -72 -25 -26 -45 -55 -45 -65 0 -12 7 -7 21 15 29 45 63 65 91 54 34
-13 44 -29 61 -93 l15 -58 -21 15 c-12 8 -30 15 -40 15 -20 0 -77 -51 -77 -69
0 -6 13 3 28 20 35 39 64 35 121 -16 53 -48 82 -120 87 -214 l3 -76 -13 85
c-13 85 -36 149 -61 170 -9 7 -7 -10 6 -57 11 -37 19 -77 19 -88 -1 -17 -3
-16 -16 8 -22 40 -27 33 -8 -10 9 -21 40 -117 69 -213 28 -96 64 -215 80 -265
19 -62 29 -121 32 -190 5 -98 5 -101 -21 -132 -52 -62 -177 -72 -223 -19 -32
38 -31 68 1 33 34 -36 96 -52 138 -34 18 8 42 24 53 37 l20 22 -35 -21 c-49
-29 -107 -28 -156 5 -45 30 -54 42 -54 68 0 15 9 10 45 -23 38 -35 51 -41 89
-41 38 0 48 5 75 35 17 20 31 44 31 54 0 16 -6 13 -33 -14 -46 -46 -82 -54
-127 -28 -58 34 -72 62 -92 188 -18 117 -36 178 -147 495 -78 227 -90 281 -92
420 -1 91 -3 106 -10 70 -4 -25 -8 -72 -9 -105 l-2 -60 -10 50 c-9 49 -3 263
10 359 7 46 8 47 23 30 14 -17 15 -27 4 -77 l-11 -57 25 23 c14 13 56 38 92
56 36 18 77 43 90 55 13 13 25 22 27 21 2 -1 -5 -19 -15 -39z m1207 -198 c-51
-283 -87 -405 -113 -379 -8 8 -6 25 6 63 27 88 38 196 32 318 -3 63 -8 125
-11 137 -3 17 3 24 29 32 17 6 43 20 57 31 l25 19 3 -24 c2 -14 -11 -103 -28
-197z m-555 123 c45 -20 70 -45 60 -61 -4 -7 -15 -4 -31 9 -13 10 -47 24 -75
31 -58 14 -124 2 -172 -32 l-29 -21 4 24 c8 60 155 90 243 50z m7 -62 c45 -23
52 -33 44 -65 -6 -24 -7 -24 -44 -8 -50 21 -159 21 -202 -1 -36 -19 -36 -19
-45 16 -5 22 -1 30 23 48 61 43 150 47 224 10z m-7 -93 c30 -13 35 -20 35 -47
0 -26 -3 -30 -17 -24 -38 17 -148 17 -187 1 -45 -19 -56 -14 -56 24 0 23 7 31
38 43 47 20 142 21 187 3z m995 -147 c11 -120 11 -141 -4 -193 -20 -67 -44
-73 -59 -16 -15 56 -2 217 23 288 12 35 24 62 25 60 2 -2 9 -64 15 -139z
m-1965 -12 c23 -103 34 -144 70 -252 13 -40 -29 41 -52 100 l-24 60 6 -45 c3
-25 24 -118 46 -208 l41 -163 -27 -162 c-15 -89 -28 -163 -30 -165 -1 -1 -5
48 -9 110 -4 62 -16 181 -27 263 -17 133 -37 617 -25 590 3 -5 17 -63 31 -128z
m974 72 c25 -9 31 -16 31 -41 0 -27 -3 -30 -22 -23 -50 15 -134 17 -175 2 -44
-15 -53 -10 -53 28 0 35 149 58 219 34z m-1 -80 c16 -6 22 -17 22 -37 l0 -28
-77 0 c-46 0 -88 -5 -102 -13 -27 -15 -36 -8 -44 36 -6 29 -3 33 26 42 63 19
121 19 175 0z m9 -87 c6 -4 11 -23 11 -42 0 -19 1 -39 2 -45 8 -36 -30 -56
-114 -58 -31 -1 -56 -5 -56 -9 0 -14 120 -8 148 6 l28 14 22 -151 c13 -84 35
-195 49 -247 36 -133 36 -208 -1 -287 -43 -95 -132 -168 -181 -149 -27 10 -12
99 25 146 19 25 19 25 2 -37 -12 -48 -13 -66 -5 -74 9 -9 10 -6 6 12 -5 24 -5
24 11 4 16 -20 16 -19 10 6 -3 15 -1 30 4 33 6 3 8 -2 5 -13 -3 -10 0 -22 6
-25 7 -4 9 6 6 28 -6 44 10 90 27 80 7 -4 5 2 -4 13 -24 27 -23 35 5 29 l22
-6 -22 11 c-24 13 -31 39 -11 39 7 0 6 5 -4 13 -8 6 -22 41 -32 77 -9 36 -31
124 -50 195 l-35 130 52 6 c54 6 97 23 97 38 0 5 -17 0 -37 -10 -32 -16 -113
-27 -113 -15 0 2 -3 11 -6 20 -5 13 2 16 42 16 32 0 61 7 83 21 42 26 35 35
-10 12 -44 -22 -122 -24 -126 -3 -3 12 7 15 41 15 25 0 50 5 55 10 7 7 -9 9
-48 7 l-57 -4 -12 40 c-11 36 -31 132 -28 132 0 0 19 7 41 15 43 15 132 20
152 7z m152 -69 c12 -27 42 -82 67 -124 l44 -76 -25 -149 c-14 -82 -30 -210
-36 -284 -18 -228 -18 -231 -59 -246 -34 -12 -34 -13 -7 -13 36 -1 34 -12 -5
-36 -31 -18 -104 -25 -126 -11 -7 4 7 25 41 59 61 62 94 124 109 204 9 51 7
79 -20 228 -41 222 -55 347 -47 403 7 47 24 92 35 92 3 0 16 -21 29 -47z
m-441 -216 c6 -7 23 -56 37 -108 39 -146 32 -336 -15 -448 -13 -28 -24 -50
-26 -48 -2 2 -17 55 -34 118 -16 63 -41 152 -56 199 -31 98 -39 244 -16 273
22 26 93 35 110 14z m1022 -82 c-31 -139 -29 -395 5 -568 8 -43 15 -96 15
-117 0 -21 9 -57 19 -81 22 -48 18 -68 -8 -45 -22 20 -65 21 -81 1 -10 -12
-16 -11 -40 7 -20 14 -36 19 -54 14 -15 -4 -26 -2 -26 3 0 15 35 31 67 31 22
0 25 2 13 10 -8 5 -32 10 -52 10 -39 0 -51 13 -22 24 9 3 35 6 58 6 23 0 51 6
62 14 17 13 13 14 -38 9 -31 -3 -65 -2 -75 2 -15 6 -11 10 22 21 34 11 36 13
13 13 -15 1 -29 5 -33 10 -3 6 9 8 30 4 23 -4 43 0 60 11 30 20 35 42 6 26
-27 -14 -84 -13 -99 2 -18 18 -15 51 4 44 17 -6 83 24 103 48 11 13 6 12 -38
-1 -65 -21 -81 -10 -81 58 0 48 0 48 26 39 14 -6 35 -10 47 -10 18 1 15 5 -15
21 -21 10 -42 27 -47 37 -13 25 -24 147 -16 179 l7 28 13 -25 c14 -25 14 -25
15 13 0 32 7 46 44 81 24 24 56 62 71 85 16 23 29 40 31 38 2 -1 -1 -20 -6
-42z m-1621 -402 c-11 -27 -30 -59 -42 -72 -12 -13 -16 -21 -9 -17 15 9 15 6
-3 -37 -16 -38 -12 -60 14 -91 16 -18 15 -18 -16 -2 -28 14 -33 22 -33 52 0
19 7 50 15 69 14 35 83 145 91 145 2 0 -6 -21 -17 -47z m737 -184 c-8 -49 -7
-66 4 -87 14 -24 42 -43 39 -25 -4 25 2 63 11 63 17 0 24 -31 12 -50 -8 -13
-7 -21 1 -29 17 -17 3 -22 -34 -10 -47 16 -59 35 -59 91 0 40 21 108 33 108 2
0 -1 -27 -7 -61z m-767 -69 c12 0 19 -4 16 -10 -18 -29 -95 5 -95 42 0 21 1
21 28 -5 15 -15 38 -27 51 -27z m1104 15 c-15 -40 -137 -72 -161 -42 -8 9 0
11 36 9 36 -2 56 3 87 22 48 30 46 30 38 11z m-437 -84 c17 -71 17 -76 0 -62
-16 13 -36 86 -36 128 1 25 2 26 11 9 6 -10 17 -44 25 -75z m-97 22 c-3 -33
14 -89 48 -156 19 -37 21 -52 13 -67 -11 -20 -11 -20 -43 2 -24 17 -46 23 -85
23 -49 0 -56 -3 -89 -39 -35 -38 -36 -39 -63 -22 -16 9 -40 17 -54 18 -31 3
-30 0 -12 43 12 28 18 33 38 28 20 -6 22 -5 9 10 -19 24 -6 72 17 61 9 -5 53
-9 97 -11 89 -3 73 11 -27 22 -69 8 -86 25 -26 26 l43 0 -43 14 c-49 15 -72
32 -72 52 0 10 8 8 29 -8 23 -17 42 -21 88 -20 83 3 80 2 105 28 27 29 30 29
27 -4z m532 -11 c-6 -11 -24 -32 -42 -46 -26 -22 -27 -26 -11 -26 11 0 31 9
46 21 25 20 26 20 26 1 0 -11 11 -45 25 -76 29 -65 31 -86 10 -86 -19 0 -55
-57 -55 -87 0 -21 -5 -23 -58 -23 -58 0 -58 0 -71 36 -19 53 -45 74 -89 74
-21 0 -43 -5 -50 -12 -22 -22 -14 12 14 59 18 32 24 52 19 71 l-6 26 18 -23
c17 -21 73 -40 121 -41 36 0 17 17 -26 25 -49 8 -102 40 -102 61 0 8 5 24 11
35 10 20 11 20 31 2 31 -28 105 -24 154 8 44 30 50 30 35 1z m-1096 -62 c16
-7 11 -9 -21 -9 -22 -1 -49 -8 -60 -16 -17 -13 -16 -14 17 -8 52 8 57 -13 7
-29 -28 -9 -50 -24 -65 -47 -21 -30 -23 -32 -23 -11 0 22 29 78 58 113 16 18
54 21 87 7z m818 -36 c7 -8 -23 -64 -35 -64 -13 0 -20 21 -14 46 6 23 34 33
49 18z m607 -35 c0 -17 -4 -28 -10 -24 -5 3 -10 17 -10 31 0 13 5 24 10 24 6
0 10 -14 10 -31z m118 19 c19 -19 15 -68 -5 -68 -60 1 -79 26 -46 62 19 21 34
23 51 6z m112 -7 c18 -35 12 -51 -20 -51 -26 0 -30 4 -30 28 0 45 30 59 50 23z
m-956 -8 c4 -9 3 -20 -2 -25 -11 -11 -42 1 -42 16 0 29 34 36 44 9z m1012 -30
c-11 -11 -17 4 -9 23 7 18 8 18 11 1 2 -10 1 -21 -2 -24z m-1608 5 c7 -7 12
-21 12 -32 0 -20 -1 -20 -16 2 -8 12 -24 22 -35 22 -11 0 -17 5 -14 10 8 14
38 13 53 -2z m-134 -20 c24 -34 21 -68 -6 -68 -41 0 -68 12 -68 29 0 23 28 61
45 61 8 0 21 -10 29 -22z m94 -10 c22 -22 14 -48 -13 -48 -21 0 -25 5 -25 30
0 31 17 39 38 18z m632 -47 c5 -11 10 -28 10 -38 0 -13 -5 -10 -20 12 -11 17
-20 33 -20 38 0 14 20 7 30 -12z m45 10 c10 -17 -12 -21 -25 -6 -10 12 -10 15
3 15 9 0 18 -4 22 -9z m-181 -23 c16 -15 26 -36 28 -58 l3 -35 -56 -9 c-31 -5
-73 -6 -94 -2 -36 7 -37 8 -32 43 13 78 95 111 151 61z m344 -10 c7 -7 12 -22
12 -35 0 -19 -5 -23 -29 -23 -41 0 -61 9 -61 29 0 23 20 41 45 41 12 0 26 -5
33 -12z m297 -8 c9 -28 -2 -40 -36 -40 -33 0 -33 -1 -19 34 11 31 46 35 55 6z
m-905 -29 c0 -32 -14 -49 -25 -31 -9 15 3 60 15 60 6 0 10 -13 10 -29z m50 -1
c14 -34 9 -46 -15 -36 -19 7 -29 31 -21 51 9 24 22 18 36 -15z m310 -6 c0 -13
-4 -24 -9 -24 -11 0 -22 40 -15 52 9 15 24 -2 24 -28z"/>
<path d="M1820 3694 c-71 -19 -223 -100 -319 -169 -103 -75 -188 -151 -178
-161 12 -13 84 29 177 103 205 162 285 198 443 198 82 0 95 2 80 12 -45 34
-118 40 -203 17z"/>
<path d="M1430 3666 c-93 -27 -147 -55 -183 -94 l-28 -29 47 -7 c45 -6 48 -4
103 43 31 26 75 60 99 76 23 15 42 29 42 31 0 5 8 7 -80 -20z"/>
<path d="M1549 3340 c-108 -76 -167 -135 -145 -143 11 -4 39 14 84 52 72 63
160 151 150 151 -3 0 -43 -27 -89 -60z"/>
<path d="M2698 4052 c-10 -4 17 -7 60 -8 42 0 95 -3 117 -7 l40 -6 -30 14
c-31 15 -156 19 -187 7z"/>
<path d="M3018 4035 c28 -15 52 -31 52 -37 0 -5 -9 -21 -20 -35 -43 -56 -14
-146 77 -242 l55 -56 -30 45 c-37 57 -72 126 -83 163 -16 56 29 111 57 72 23
-32 15 0 -8 35 -32 46 -67 70 -113 76 l-40 5 53 -26z"/>
<path d="M2514 3945 c-3 -14 -10 -25 -15 -25 -5 0 -6 -6 -3 -14 8 -20 -15 -60
-76 -136 -53 -66 -95 -138 -86 -147 2 -3 17 15 32 39 15 23 64 82 110 130 71
74 84 92 84 121 0 53 -35 77 -46 32z"/>
<path d="M2284 3904 c-14 -33 -14 -48 -4 -110 7 -40 11 -86 8 -103 -2 -16 -1
-28 4 -25 15 9 48 82 48 106 0 21 -1 21 -13 4 -12 -17 -15 -14 -27 29 -10 37
-11 57 -2 89 14 54 7 59 -14 10z"/>
<path d="M2548 3778 c-8 -13 -20 -34 -27 -48 -12 -24 -11 -24 4 -5 19 23 48
75 41 75 -2 0 -10 -10 -18 -22z"/>
<path d="M3010 3793 c0 -19 46 -120 59 -128 8 -4 7 4 -2 27 -23 55 -56 114
-57 101z"/>
<path d="M2354 3602 c-21 -17 -44 -53 -44 -69 0 -4 12 7 26 25 21 26 32 32 65
32 32 0 48 -7 84 -41 50 -46 56 -44 24 8 -37 59 -111 81 -155 45z"/>
<path d="M3111 3596 c-24 -13 -50 -51 -51 -73 0 -15 27 -11 43 7 10 12 9 12
-5 1 -11 -8 -18 -9 -18 -3 0 15 41 42 64 42 11 0 28 -7 38 -17 28 -25 22 4 -7
32 -28 29 -31 29 -64 11z"/>
<path d="M3133 3523 c-20 -7 -71 -88 -88 -138 -8 -25 -14 -71 -14 -103 1 -31
4 -46 6 -32 7 41 34 120 41 120 4 0 21 -17 39 -37 31 -37 32 -38 47 -18 13 18
13 20 -6 25 -23 6 -37 30 -19 30 14 0 52 61 45 72 -3 5 -2 8 3 7 41 -7 43 13
4 52 -30 29 -36 32 -58 22z m30 -30 c-7 -2 -19 -2 -25 0 -7 3 -2 5 12 5 14 0
19 -2 13 -5z m-13 -88 c-7 -8 -18 -15 -24 -15 -6 0 -2 7 8 15 25 19 32 19 16
0z"/>
<path d="M2735 3484 c-16 -8 -37 -22 -45 -30 -8 -8 1 -6 25 6 53 27 133 27
186 -1 23 -11 38 -16 34 -10 -13 22 -85 51 -127 51 -24 0 -56 -7 -73 -16z"/>
<path d="M2725 3404 c-42 -21 -57 -39 -25 -28 50 17 162 10 208 -13 43 -21 43
-21 25 -1 -45 52 -149 73 -208 42z"/>
<path d="M2734 3209 c-17 -5 -39 -18 -48 -28 -18 -20 -18 -20 20 0 52 26 141
26 197 -2 l42 -20 -25 20 c-45 38 -120 49 -186 30z"/>
<path d="M2712 3123 c-18 -9 -38 -25 -43 -35 -10 -18 -8 -18 20 3 59 43 173
42 236 -3 l30 -21 -20 22 c-11 13 -32 29 -47 37 -37 19 -135 17 -176 -3z"/>
<path d="M2704 3041 c-39 -18 -74 -54 -74 -75 0 -5 9 0 20 12 68 73 184 79
283 16 31 -20 36 -21 26 -6 -41 65 -171 92 -255 53z"/>
<path d="M2688 2898 c-51 -30 -48 -42 5 -18 80 37 203 19 272 -38 13 -11 11
-6 -5 12 -58 66 -195 89 -272 44z"/>
<path d="M3465 3801 c-23 -10 -99 -90 -92 -97 2 -3 21 5 41 17 20 12 61 23 93
26 55 5 107 -7 218 -52 35 -14 -48 54 -98 81 -52 27 -130 39 -162 25z"/>
<path d="M3404 3515 c-20 -19 -35 -37 -33 -39 2 -3 23 1 47 7 82 22 152 -4
303 -112 78 -56 65 -28 -29 61 -78 73 -158 118 -213 118 -29 0 -46 -8 -75 -35z"/>
<path d="M3779 3368 c67 -98 145 -187 156 -177 14 15 -191 279 -217 279 -5 0
22 -46 61 -102z"/>
<path d="M3771 2730 c-7 -29 -28 -81 -45 -116 -18 -35 -26 -58 -18 -52 32 27
90 178 80 208 -2 7 -10 -11 -17 -40z"/>
<path d="M3115 2275 c7 -34 71 -175 80 -175 3 0 -4 19 -16 42 -12 23 -32 69
-46 102 -13 34 -21 48 -18 31z"/>
<path d="M2810 2084 l-65 -13 59 5 c32 2 66 9 75 14 20 12 13 11 -69 -6z"/>
<path d="M2835 2060 c-39 -4 -50 -8 -30 -10 44 -4 89 0 100 11 5 6 5 8 0 7 -6
-1 -37 -4 -70 -8z"/>
<path d="M2885 1769 c-29 -13 -34 -19 -19 -19 12 0 32 9 45 20 29 24 25 24
-26 -1z"/>
<path d="M2920 1725 c-14 -8 -20 -14 -14 -15 5 0 19 7 30 15 24 18 16 19 -16
0z"/>
<path d="M2940 1520 c-8 -5 -10 -10 -5 -10 6 0 17 5 25 10 8 5 11 10 5 10 -5
0 -17 -5 -25 -10z"/>
<path d="M2898 1503 c7 -3 16 -2 19 1 4 3 -2 6 -13 5 -11 0 -14 -3 -6 -6z"/>
<path d="M2910 1280 c0 -6 -5 -8 -11 -4 -8 4 -8 0 0 -15 7 -11 14 -21 17 -21
3 0 2 5 -2 11 -3 6 -1 15 6 19 9 5 9 9 1 14 -6 4 -11 2 -11 -4z"/>
<path d="M3602 1675 c0 -16 2 -22 5 -12 2 9 2 23 0 30 -3 6 -5 -1 -5 -18z"/>
<path d="M2897 1009 c7 -7 15 -10 18 -7 3 3 -2 9 -12 12 -14 6 -15 5 -6 -5z"/>
<path d="M2948 993 c12 -2 30 -2 40 0 9 3 -1 5 -23 4 -22 0 -30 -2 -17 -4z"/>
</g>
</svg>